<?xml version="1.0" encoding="utf-8"?>
<!-- Generator: Adobe Illustrator 24.2.3, SVG Export Plug-In . SVG Version: 6.00 Build 0)  -->
<svg version="1.1" id="Capa_1" xmlns="http://www.w3.org/2000/svg" xmlns:xlink="http://www.w3.org/1999/xlink" x="0px" y="0px"
	 viewBox="0 0 512 512" style="enable-background:new 0 0 512 512;" xml:space="preserve">
<style type="text/css">
	.st0{fill:#545454;}
</style>
<g>
	<g>
		<path class="st0" d="M508.9,88.4L423.6,3.1c-2-2-4.7-3.1-7.6-3.1H32C14.4,0,0,14.4,0,32v448c0,17.6,14.4,32,32,32h448
			c17.6,0,32-14.4,32-32V96C512,93.2,510.9,90.5,508.9,88.4z M490.7,480c0,5.9-4.8,10.7-10.7,10.7H32c-5.9,0-10.7-4.8-10.7-10.7V32
			c0-5.9,4.8-10.7,10.7-10.7h379.6l79.1,79.1L490.7,480L490.7,480z"/>
	</g>
</g>
<g>
	<g>
		<path class="st0" d="M373.3,0H138.7C132.8,0,128,4.8,128,10.7v128c0,17.6,14.4,32,32,32h192c17.6,0,32-14.4,32-32v-128
			C384,4.8,379.2,0,373.3,0z M362.7,138.7c0,5.9-4.8,10.7-10.7,10.7H160c-5.9,0-10.7-4.8-10.7-10.7V21.3h213.3L362.7,138.7
			L362.7,138.7z"/>
	</g>
</g>
<g>
	<g>
		<path class="st0" d="M394.7,192H117.3C87.9,192,64,215.9,64,245.3v256c0,5.9,4.8,10.7,10.7,10.7h362.7c5.9,0,10.7-4.8,10.7-10.7
			v-256C448,215.9,424.1,192,394.7,192z M426.7,490.7H85.3V245.3c0-17.6,14.4-32,32-32h277.3c17.6,0,32,14.4,32,32L426.7,490.7
			L426.7,490.7z"/>
	</g>
</g>
<g>
	<g>
		<path class="st0" d="M330.7,42.7H288c-5.9,0-10.7,4.8-10.7,10.7v64c0,5.9,4.8,10.7,10.7,10.7h42.7c5.9,0,10.7-4.8,10.7-10.7v-64
			C341.3,47.4,336.6,42.7,330.7,42.7z M320,106.7h-21.3V64H320V106.7z"/>
	</g>
</g>
<g>
	<g>
		<path class="st0" d="M373.3,277.3H138.7c-5.9,0-10.7,4.8-10.7,10.7s4.8,10.7,10.7,10.7h234.7c5.9,0,10.7-4.8,10.7-10.7
			S379.2,277.3,373.3,277.3z"/>
	</g>
</g>
<g>
	<g>
		<path class="st0" d="M373.3,341.3H138.7c-5.9,0-10.7,4.8-10.7,10.7s4.8,10.7,10.7,10.7h234.7c5.9,0,10.7-4.8,10.7-10.7
			C384,346.1,379.2,341.3,373.3,341.3z"/>
	</g>
</g>
<g>
	<g>
		<path class="st0" d="M373.3,405.3H138.7c-5.9,0-10.7,4.8-10.7,10.7s4.8,10.7,10.7,10.7h234.7c5.9,0,10.7-4.8,10.7-10.7
			C384,410.1,379.2,405.3,373.3,405.3z"/>
	</g>
</g>
</svg>
