<?xml version="1.0" encoding="utf-8"?>
<!-- Generator: Adobe Illustrator 24.2.3, SVG Export Plug-In . SVG Version: 6.00 Build 0)  -->
<svg version="1.1" id="Capa_1" xmlns="http://www.w3.org/2000/svg" xmlns:xlink="http://www.w3.org/1999/xlink" x="0px" y="0px"
	 viewBox="0 0 189.5 189.5" style="enable-background:new 0 0 189.5 189.5;" xml:space="preserve">
<style type="text/css">
	.st0{fill:#383838;}
</style>
<path class="st0" d="M33.4,47.4v82.3h71.3l26.2,23.3v-23.3H152V47.4C152,47.4,33.4,47.4,33.4,47.4z M145,122.9h-21.2v14.8
	l-16.6-14.8h-67V54.5H145V122.9z"/>
<path class="st0" d="M57.8,99.8c-1.6,0-3-1.4-3-3h-9.6c0,7,5.6,12.6,12.6,12.6s12.6-5.6,12.6-12.6s-5.6-12.6-12.6-12.6
	c-1.1,0-2.1-0.9-2.1-2.1s0.9-2.1,2.1-2.1c1.1,0,2.1,0.9,2.1,2.1h9.6c0-6.5-5.3-11.6-11.6-11.6s-11.6,5.3-11.6,11.6
	S51.7,93.7,58,93.7c1.6,0,3,1.4,3,3C60.8,98.4,59.6,99.8,57.8,99.8z"/>
<path class="st0" d="M129.6,99.8c-1.6,0-3-1.4-3-3H117c0,7,5.6,12.6,12.6,12.6s12.6-5.6,12.6-12.6s-5.6-12.6-12.6-12.6
	c-1.1,0-2.1-0.9-2.1-2.1s0.9-2.1,2.1-2.1c1.2,0,2.1,0.9,2.1,2.1h9.6c0-6.5-5.3-11.6-11.6-11.6c-6.3,0-11.6,5.3-11.6,11.6
	s5.3,11.6,11.6,11.6c1.6,0,3,1.4,3,3C132.6,98.4,131.3,99.8,129.6,99.8z"/>
<path class="st0" d="M82.1,83.2c0-1.6,1.4-3,3-3c1.6,0,3,1.4,3,3v25.2h9.6V83.2c0-1.6,1.4-3,3-3c1.6,0,3,1.4,3,3v25.2h9.6V83.2
	c0-7-5.6-12.6-12.6-12.6c-3,0-5.6,1.1-7.7,2.6c-2.1-1.8-4.9-2.6-7.7-2.6c-7,0-12.6,5.6-12.6,12.6v25.2h9.6V83.2H82.1z"/>
<path class="st0" d="M94.7,187.7c-51.2,0-92.9-41.7-92.9-92.9s41.7-93,92.9-93s92.9,41.7,92.9,92.9S146,187.7,94.7,187.7z M94.7,7.8
	c-47.9,0-86.9,39-86.9,86.9s39,86.9,86.9,86.9s86.9-39,86.9-86.9S142.7,7.8,94.7,7.8z"/>
</svg>
