<?xml version="1.0" encoding="utf-8"?>
<!-- Generator: Adobe Illustrator 24.2.3, SVG Export Plug-In . SVG Version: 6.00 Build 0)  -->
<svg version="1.1" id="Capa_1" xmlns="http://www.w3.org/2000/svg" xmlns:xlink="http://www.w3.org/1999/xlink" x="0px" y="0px"
	 viewBox="0 0 189.5 189.5" style="enable-background:new 0 0 189.5 189.5;" xml:space="preserve">
<style type="text/css">
	.st0{fill:#67BAF1;}
</style>
<path class="st0" d="M47.1,58.3v65h56.3l20.7,18.4l0-18.4h16.7v-65H47.1z M135.2,117.9h-16.7v11.7l-13.1-11.7H52.5v-54h82.7V117.9z"
	/>
<path class="st0" d="M72.8,95.4c-0.9,0-1.7-0.8-1.7-1.7h-5.5c0,4,3.2,7.2,7.2,7.2c4,0,7.2-3.2,7.2-7.2c0-4-3.2-7.2-7.2-7.2
	c-0.6,0-1.2-0.5-1.2-1.2s0.5-1.2,1.2-1.2c0.6,0,1.2,0.5,1.2,1.2h5.5c0-3.7-3-6.6-6.6-6.6s-6.6,3-6.6,6.6s3,6.6,6.6,6.6
	c0.9,0,1.7,0.8,1.7,1.7C74.5,94.6,73.8,95.4,72.8,95.4z"/>
<path class="st0" d="M114.9,95.4c-0.9,0-1.7-0.8-1.7-1.7h-5.5c0,4,3.2,7.2,7.2,7.2s7.2-3.2,7.2-7.2c0-4-3.2-7.2-7.2-7.2
	c-0.6,0-1.2-0.5-1.2-1.2s0.5-1.2,1.2-1.2s1.2,0.5,1.2,1.2h5.5c0-3.7-3-6.6-6.6-6.6s-6.6,3-6.6,6.6s3,6.6,6.6,6.6
	c0.9,0,1.7,0.8,1.7,1.7C116.6,94.6,115.9,95.4,114.9,95.4z"/>
<path class="st0" d="M87.8,85.9c0-0.9,0.8-1.7,1.7-1.7c0.9,0,1.7,0.8,1.7,1.7v14.4h5.5V85.9c0-0.9,0.8-1.7,1.7-1.7
	c0.9,0,1.7,0.8,1.7,1.7v14.4h5.5V85.9c0-4-3.2-7.2-7.2-7.2c-1.7,0-3.2,0.6-4.4,1.5c-1.2-1-2.8-1.5-4.4-1.5c-4,0-7.2,3.2-7.2,7.2
	v14.4h5.5V85.9z"/>
<path class="st0" d="M94.7,187.7c-51.2,0-92.9-41.7-92.9-92.9s41.7-93,92.9-93s92.9,41.7,92.9,92.9S146,187.7,94.7,187.7z M94.7,7.8
	c-47.9,0-86.9,39-86.9,86.9s39,86.9,86.9,86.9s86.9-39,86.9-86.9S142.7,7.8,94.7,7.8z"/>
</svg>
